<svg xmlns="http://www.w3.org/2000/svg" width="112.89mm" height="26.16mm" viewBox="0 0 320 74.16"><defs><style>.a{fill:#be1902;}.b{fill:#fff;}</style></defs><title>swiss</title><path class="a" d="M234,60.73H221.69V13.27H234V60.73ZM204.84,13.27l-7.93,31.81-9.28-31.81H175.71l-9.27,31.81-8-31.81h-12l13.1,47.46h12.72l9.39-32.54,9.4,32.54h12.72l13.14-47.46H204.84Zm-59.43,34c0-9.1-4.82-12.15-15.38-15.59-5-1.62-9.62-2.87-9.62-6.74,0-3.39,3.45-4.52,6-4.52,2.19,0,6.29.46,6.63,5.5h11.65c-0.2-9.61-8-13.79-18.07-13.79-6.23,0-11.38,1.77-14.63,5a12.63,12.63,0,0,0-3.64,8.9c0,8.84,5.9,12.38,12.57,14.4,7.49,2.28,12.45,3.65,12.45,7.78,0,2.75-2.18,5.5-6.5,5.5-5.48,0-7.47-3.27-7.6-6.49H107.51c0,10.93,9.22,14.94,19.39,14.94,13,0,18.51-7.4,18.51-14.86m132.19,0c0-10.47-7.62-13.23-16.82-16-4.44-1.3-8.42-2.48-8.42-6.34,0-3.39,3.45-4.52,6-4.52,2.2,0,6.29.46,6.62,5.5h11.66c-0.2-9.61-8-13.79-18.08-13.79-6.23,0-11.4,1.77-14.63,5a12.67,12.67,0,0,0-3.64,8.9c0,8.84,5.89,12.38,12.58,14.4,7.48,2.28,12.45,3.65,12.45,7.78,0,2.75-2.18,5.5-6.49,5.5-5.5,0-7.49-3.27-7.61-6.49H239.46c0,10.93,9.21,14.94,19.4,14.94,13,0,18.74-7.4,18.74-14.86m42.4,0c0-10.47-7.65-13.23-16.85-16-4.45-1.3-8.4-2.48-8.4-6.34,0-3.39,3.43-4.52,6-4.52,2.18,0,6.29.46,6.62,5.5h11.68c-0.2-9.61-8-13.79-18.1-13.79-6.23,0-11.39,1.77-14.65,5A12.69,12.69,0,0,0,282.7,26c0,8.84,5.89,12.38,12.57,14.4,7.49,2.28,12.45,3.65,12.45,7.78,0,2.75-2.18,5.5-6.48,5.5-5.49,0-7.48-3.27-7.61-6.49h-11.8c0,10.93,9.21,14.94,19.41,14.94,13,0,18.77-7.4,18.77-14.86"/><polygon class="a" points="81.15 74.16 0 74.16 59.48 0 99.42 0 81.15 74.16"/><polygon class="b" points="68.73 30.23 68.73 14.27 55.05 14.27 55.05 30.23 39.08 30.23 39.08 43.92 55.04 43.92 55.04 59.89 68.72 59.89 68.72 43.92 68.73 43.92 84.7 43.92 84.7 30.23 68.73 30.23"/></svg>