<svg xmlns="http://www.w3.org/2000/svg" width="245.09mm" height="39.22mm" viewBox="0 0 694.74 111.19"><defs><style>.a{fill:#fff;}.b{opacity:0.66;}</style></defs><title>site-title</title><path class="a" d="M251.82,17.2a6.51,6.51,0,0,0,5.58,3.07c2.64,0,4.65-1.62,4.65-4.09,0-1.58-1.09-2.57-2.71-3.56l-2.51-1.52C255,10,253.5,8.45,253.5,6c0-3.27,2.84-6,6.73-6a7.8,7.8,0,0,1,6.14,3l-1.68,1.52A6,6,0,0,0,260,2.21a3.68,3.68,0,0,0-3.93,3.5c0,1.68,1.22,2.57,2.81,3.53l2.51,1.48c2.08,1.22,3.27,2.67,3.27,5.08,0,3.86-3.14,6.63-7.53,6.63a8.37,8.37,0,0,1-7.23-3.83Z"/><path class="a" d="M286,22H283.9l0.26-2.44H284c-1.75,1.55-3.6,2.84-5.54,2.84-2.71,0-3.8-1.55-3.8-4a9,9,0,0,1,.26-2.21L277,6h2.54l-2,9.9a9.71,9.71,0,0,0-.26,1.88c0,1.62.73,2.48,2.38,2.48,1.25,0,2.81-.89,4.75-2.9L286.67,6h2.51Z"/><path class="a" d="M301.06,6h2.08L302.9,8.42H303c1.68-1.58,3.6-2.81,5.28-2.81,2.54,0,3.47,1.39,3.7,3.14,2-1.95,4-3.14,5.68-3.14,2.67,0,3.8,1.52,3.8,4a11.15,11.15,0,0,1-.26,2.21l-2,10.23h-2.54l2-9.9a9.72,9.72,0,0,0,.26-1.88c0-1.62-.76-2.48-2.34-2.48-0.92,0-2.61.89-4.52,2.9L309.77,22h-2.51l2-9.9a9.72,9.72,0,0,0,.26-1.88c0-1.62-.73-2.48-2.31-2.48-1,0-2.64.89-4.52,2.9L300.4,22h-2.51Z"/><path class="a" d="M334,6h2.08l-0.23,2.41H336c1.68-1.58,3.6-2.81,5.28-2.81,2.54,0,3.47,1.39,3.7,3.14,2-1.95,4-3.14,5.68-3.14,2.67,0,3.8,1.52,3.8,4a11.15,11.15,0,0,1-.26,2.21l-2,10.23H349.6l2-9.9a9.72,9.72,0,0,0,.26-1.88c0-1.62-.76-2.48-2.34-2.48-0.92,0-2.61.89-4.52,2.9L342.74,22h-2.51l2-9.9a9.72,9.72,0,0,0,.26-1.88c0-1.62-.73-2.48-2.31-2.48-1,0-2.64.89-4.52,2.9L333.36,22h-2.51Z"/><path class="a" d="M372.6,5.61c3.6,0,5,2.51,5,5.81a10.47,10.47,0,0,1-.56,3.14H366.56c-0.59,4.13,1.55,5.87,4.36,5.87a6.41,6.41,0,0,0,3.6-1.39l1,1.68a9,9,0,0,1-5.18,1.72c-3.8,0-6.3-2.41-6.3-6.7C364,9.7,368.41,5.61,372.6,5.61Zm2.64,7.23a8.45,8.45,0,0,0,.17-1.65c0-1.82-.79-3.56-3.1-3.56s-4.65,2-5.48,5.21h8.42Z"/><path class="a" d="M389.46,6h2.08l-0.36,3.07h0.13c1.29-1.95,3-3.47,5-3.47a3.66,3.66,0,0,1,1.52.3l-0.89,2.24a3.13,3.13,0,0,0-1.39-.26c-1.58,0-3.37,1.42-4.72,4L388.8,22h-2.51Z"/><path class="a" d="M421.57,0.4h2.57L419.82,22h-2.57Z"/><path class="a" d="M435.2,6h2.08L437,8.42h0.13c1.82-1.58,3.6-2.81,5.61-2.81,2.71,0,3.8,1.52,3.8,4a9.13,9.13,0,0,1-.26,2.21l-2,10.23h-2.51l2-9.9a9.72,9.72,0,0,0,.26-1.88c0-1.62-.73-2.48-2.38-2.48-1.25,0-2.81.89-4.82,2.9L434.54,22H432Z"/><path class="a" d="M8.27,92.66c4.37,3.8,10.07,6.46,15.2,6.46,5.79,0,8.65-2.28,8.65-6,0-3.89-3.52-5.13-8.93-7.41l-8-3.42C8.75,79.74,2.67,74.42,2.67,65.4c0-10.26,9.21-18.43,22-18.43a28.68,28.68,0,0,1,20,8.17l-7,8.83c-4.08-3.13-8-4.94-12.92-4.94-4.75,0-7.88,2.09-7.88,5.6,0,3.8,4.08,5.13,9.5,7.31l7.89,3.23c7.5,3,12.25,8.08,12.25,16.82,0,10.26-8.55,19.19-23.28,19.19a34.32,34.32,0,0,1-23-8.93Z"/><path class="a" d="M71.73,62.93H85.6l4.56,21.85c0.76,4.66,1.33,9.22,2.09,14h0.38c0.85-4.75,1.62-9.5,2.76-14l5.23-21.85h12.06L118,84.78c1.14,4.66,2,9.22,2.95,14h0.38c0.85-4.75,1.33-9.31,2.19-14L128,62.93h12.92L129.59,110H113.25L109,91.24c-1-4.37-1.71-8.74-2.56-13.78H106c-0.86,5-1.52,9.41-2.37,13.78L99.47,110h-16Z"/><path class="a" d="M168.06,48.68c0-4.28,3.42-7.22,8.08-7.22s8.07,2.94,8.07,7.22S180.88,56,176.13,56,168.06,53,168.06,48.68Zm1.14,14.25h14V110h-14V62.93Z"/><path class="a" d="M217.17,73.85h-6.46V63.5l7.22-.57,1.62-12.54h11.59V62.93h11.3V73.85h-11.3V92.76c0,5.32,2.38,7.5,6.08,7.5a13.33,13.33,0,0,0,4.46-1l2.19,10.17a33.94,33.94,0,0,1-10.45,1.71c-11.69,0-16.25-7.32-16.25-18.24V73.85Z"/><path class="a" d="M268.95,102.54l19.76-28.69H271.13V62.93h35v7.41L286.33,99.12h20.43V110H268.95v-7.5Z"/><path class="a" d="M353.59,61.79c13.4,0,20,9.79,20,22.61a27.65,27.65,0,0,1-.57,5.89H344.85c1.23,7.13,6,10.26,12.26,10.26a19,19,0,0,0,10.17-3.13l4.65,8.46a30.82,30.82,0,0,1-16.72,5.32c-13.49,0-23.85-9.12-23.85-24.7C331.36,71.19,342.29,61.79,353.59,61.79Zm8.17,19.86c0-5.42-2.28-9.21-7.88-9.21-4.37,0-8.17,2.95-9.12,9.21h17Z"/><path class="a" d="M403.18,62.93h11.4l1,8.27h0.38c3.42-6.37,8.55-9.41,13.4-9.41a13.53,13.53,0,0,1,5.6,1L432.63,74.8A17.58,17.58,0,0,0,427.5,74c-3.51,0-7.88,2.28-10.35,8.64V110h-14V62.93Z"/><path class="a" d="M460.85,43.45h14V96c0,2.94,1.33,3.89,2.47,3.89a5.88,5.88,0,0,0,1.71-.19L480.7,110a18.2,18.2,0,0,1-7,1.14c-9.59,0-12.83-6.27-12.83-15.77v-52Z"/><path class="a" d="M532.67,79.74c-0.29-4.18-2.37-6.84-7.41-6.84-4,0-8,1.62-12.54,4.28L507.78,68c6-3.61,12.73-6.18,20.14-6.18,12.06,0,18.71,6.84,18.71,21.28v27h-11.4l-1-4.84H533.9c-4,3.51-8.46,6-13.77,6-8.55,0-14-6.27-14-14.25C506.16,87.06,514,81.64,532.67,79.74Zm-7.79,20.62c3.23,0,5.32-1.52,7.79-4V88.1c-10,1.33-13.21,4.18-13.21,7.79C519.46,98.93,521.55,100.36,524.88,100.36Z"/><path class="a" d="M578.45,62.93h11.4l1,6h0.38c4-3.8,8.74-7.12,15.11-7.12,10.26,0,14.63,7.22,14.63,19V110H607V82.59c0-6.84-1.81-8.93-5.79-8.93-3.52,0-5.7,1.61-8.74,4.56V110h-14V62.93Z"/><path class="a" d="M669.75,61.79c5.22,0,8.36,1.9,11.59,4.94l-0.57-7.22V43.45h14V110h-11.4l-1-4.66H682c-3.33,3.33-8,5.8-12.54,5.8-11.69,0-19.29-9.31-19.29-24.7S659.77,61.79,669.75,61.79Zm3.33,38c3,0,5.42-1.14,7.7-4.28V76.23a11.16,11.16,0,0,0-7.79-3c-4.46,0-8.46,4.18-8.46,13.11C664.52,95.61,667.66,99.79,673.07,99.79Z"/><g class="b"><rect class="a" y="12.19" width="219.19" height="1.02"/></g><g class="b"><rect class="a" x="477.26" y="12.2" width="217.46" height="1"/></g></svg>