<?xml version="1.0" encoding="utf-8"?>
<!-- Generator: Adobe Illustrator 20.1.0, SVG Export Plug-In . SVG Version: 6.00 Build 0)  -->
<svg version="1.1" id="Layer_1" xmlns="http://www.w3.org/2000/svg" xmlns:xlink="http://www.w3.org/1999/xlink" x="0px" y="0px"
	 viewBox="0 0 723.8 128.2" style="enable-background:new 0 0 723.8 128.2;" xml:space="preserve">
<style type="text/css">
	.st0{fill:#FFFFFF;}
	.st1{opacity:0.66;fill:#FFFFFF;}
</style>
<g>
	<g>
		<path class="st0" d="M278.4,0.1h2.4l1.9,9.8c0.4,1.9,0.7,3.9,1.1,5.8h0.1c0.4-1.9,0.8-3.9,1.3-5.8l2.5-9.8h2.1l2.5,9.8
			c0.4,1.9,0.8,3.9,1.3,5.8h0.1c0.4-1.9,0.7-3.9,1-5.8l1.9-9.8h2.2l-3.7,18h-2.8l-2.7-10.8c-0.3-1.4-0.6-2.7-0.9-4.1h-0.1
			c-0.3,1.4-0.6,2.7-0.9,4.1l-2.7,10.8h-2.7L278.4,0.1z"/>
		<path class="st0" d="M308.2,0.1h2.3v18h-2.3V0.1z"/>
		<path class="st0" d="M321.9,0.1h2.4l6.5,11.3l1.9,3.7h0.1c-0.1-1.8-0.3-3.8-0.3-5.7V0.1h2.2v18h-2.4l-6.5-11.3l-1.9-3.7h-0.1
			c0.1,1.8,0.3,3.7,0.3,5.6v9.4h-2.2V0.1z"/>
		<path class="st0" d="M349.8,2h-5.5V0.1h13.2V2h-5.5v16.1h-2.3V2z"/>
		<path class="st0" d="M367.2,0.1h10.4V2h-8.1v5.6h6.8v1.9h-6.8v6.5h8.3v1.9h-10.6V0.1z"/>
		<path class="st0" d="M397.9,18.1l-4.3-7.6h-3.2v7.6h-2.3v-18h5.6c3.6,0,6.3,1.3,6.3,5c0,2.8-1.6,4.5-4,5.1l4.6,7.8H397.9z
			 M390.4,8.6h3c2.8,0,4.3-1.2,4.3-3.5c0-2.4-1.5-3.2-4.3-3.2h-3V8.6z"/>
		<path class="st0" d="M422.5,0.1h2.3v18h-2.3V0.1z"/>
		<path class="st0" d="M436.2,0.1h2.4l6.5,11.3l1.9,3.7h0.1c-0.1-1.8-0.3-3.8-0.3-5.7V0.1h2.2v18h-2.4l-6.5-11.3l-1.9-3.7h-0.1
			c0.1,1.8,0.3,3.7,0.3,5.6v9.4h-2.2V0.1z"/>
	</g>
	<g>
		<path class="st0" d="M3.3,114.1c5.2,5.8,12.6,9.6,21,9.6c10.8,0,17.7-5.8,17.7-14.3c0-8.9-5.8-11.8-12.9-14.9l-10.8-4.9
			C12.1,87,3.9,82.5,3.9,72c0-10.3,8.9-17.5,20.6-17.5c8.6,0,15.6,3.9,19.9,8.5l-2.9,3.3c-4.1-4.4-9.8-7.3-17-7.3
			c-9.4,0-15.7,5-15.7,12.7c0,8.2,7.1,11.3,12.3,13.7L32,90.2c7.9,3.6,14.9,8,14.9,18.9s-9,19.1-22.8,19.1c-10.4,0-18.4-4.4-24-10.7
			L3.3,114.1z"/>
		<path class="st0" d="M76.2,75.1h5.2l9.3,33.6c1.3,4.8,2.5,9.2,3.6,13.8h0.4c1.2-4.6,2.5-9.1,3.8-13.8l9.4-33.6h5.7l9.4,33.6
			c1.3,4.8,2.6,9.2,3.9,13.8h0.4c1.2-4.6,2.5-9.1,3.7-13.8l9.2-33.6h4.9l-14.9,51.8h-6.3l-9.1-32.2c-1.5-5-2.5-9.7-4-14.8h-0.4
			c-1.2,5.1-2.5,10-4.1,15l-9,32h-5.7L76.2,75.1z"/>
		<path class="st0" d="M178.2,58.3c0-2.7,1.9-4.3,4.3-4.3c2.4,0,4.3,1.6,4.3,4.3c0,2.5-1.9,4.2-4.3,4.2
			C180.2,62.6,178.2,60.8,178.2,58.3z M180.1,75.1h4.8v51.8h-4.8V75.1z"/>
		<path class="st0" d="M228.6,79.2h-8.1v-3.7l8.2-0.4l0.6-15h4.1v15h15v4.1h-15V113c0,6.6,1.6,11,8.7,11c1.9,0,4.6-0.8,6.5-1.6
			l1.3,3.9c-3,1.1-6.3,1.9-8.4,1.9c-10,0-13-6.4-13-15.7V79.2z"/>
		<path class="st0" d="M276.6,124.3l30.7-45.1H280v-4.1h33.5v2.5l-30.6,45.1h31.6v4.2h-37.9V124.3z"/>
		<path class="st0" d="M367,73.8c12.3,0,19.9,8.7,19.9,24c0,1.3,0,2.6-0.2,3.9h-37.4c0.2,13.1,7.9,22.5,19.5,22.5
			c5.6,0,10-1.8,13.9-4.6l1.9,3.7c-4.1,2.5-8.7,5.1-16.3,5.1c-13.3,0-24-10.2-24-27.1C344.4,84.2,355.4,73.8,367,73.8z M382.3,98
			c0-13.3-5.9-20.1-15.2-20.1c-8.9,0-16.7,7.7-17.8,20.1H382.3z"/>
		<path class="st0" d="M423.5,75.1h4.1l0.4,9.6h0.3c3.5-6.4,8.5-10.9,14.7-10.9c1.9,0,3.5,0.2,5.2,1.1l-1.1,4.3
			c-1.7-0.6-2.7-0.9-4.8-0.9c-4.6,0-10.2,3.6-14.1,13.3v35.3h-4.8V75.1z"/>
		<path class="st0" d="M480.3,49.3h4.8v71.4c0,2.3,1,3.3,2.3,3.3c0.4,0,0.9,0,1.9-0.2l0.9,3.9c-1,0.3-1.9,0.5-3.5,0.5
			c-4.2,0-6.4-2.6-6.4-8.2V49.3z"/>
		<path class="st0" d="M559,94.4c0.2-7.9-2.1-16.4-12.2-16.4c-7,0-13.1,3.5-16.5,6l-2.2-3.6c3.7-2.6,10.8-6.7,19.2-6.7
			c12.3,0,16.4,8.9,16.4,20v33.2h-4l-0.5-6.7H559c-5.3,4.2-11.6,8-18.4,8c-8.2,0-15.1-4.4-15.1-14.3C525.5,102.5,536,97,559,94.4z
			 M541.4,124.1c5.9,0,11.2-2.9,17.6-8.4V98.1c-21.3,2.5-28.5,7.5-28.5,15.7C530.5,121.2,535.5,124.1,541.4,124.1z"/>
		<path class="st0" d="M604.9,75.1h4.1l0.4,8h0.3c5.3-5.3,10.7-9.3,17.8-9.3c10.7,0,15.7,6.5,15.7,19.9v33.3h-4.8V94.3
			c0-11-3.5-16.2-11.9-16.2c-6.2,0-10.6,3.2-17,9.7v39.1h-4.8V75.1z"/>
		<path class="st0" d="M703.6,73.8c6.3,0,10.5,2.4,15.7,6.4l-0.2-9.5V49.3h4.8v77.6h-4.1l-0.4-6.7h-0.3c-4.2,4.2-9.9,8-16.8,8
			c-13.1,0-21.5-9.6-21.5-27.1C680.6,84.4,691.3,73.8,703.6,73.8z M702.7,124c5.7,0,10.8-3,16.3-8.5V84.7c-5.5-4.9-10-6.7-15.1-6.7
			c-10.4,0-18.3,10-18.3,23.1C685.7,114.8,691.7,124,702.7,124z"/>
	</g>
	<rect x="134.1" y="9.9" class="st1" width="113.2" height="0.8"/>
	<rect x="480.2" y="9.9" class="st1" width="112.3" height="0.8"/>
</g>
</svg>
